#!OML:ASF H:\Terrain\Patient Classification 1\Walking\liu\liu.ASF
:FULLY-SPECIFIED
:DEGREES
16
root 8.63827 16.154 -28.3745 3.74959 6.87124 -5.05937
lowerback -5.82593 -4.08169 1.73169
upperback -0.875528 -5.67016 4.49422
thorax 2.64483 -2.83204 3.20801
lowerneck -24.28 -2.81322 -11.7637
upperneck 23.78 -3.25495 12.9189
head 12.3107 -0.829227 6.41705
rclavicle 2.25248e-014 -1.82882e-014
rhumerus -40.3606 -7.82711 -72.7686
rradius 17.0466
rwrist 1.172
rhand -31.3503 -24.2628
rfingers 7.12502
rthumb -4.6214 -54.1924
lclavicle 2.25248e-014 -1.82882e-014
lhumerus -18.8126 -20.0362 91.2979
lradius 43.5899
lwrist 11.6527
lhand -17.5896 -29.5642
lfingers 7.12502
lthumb 8.66639 0.237879
rfemur -24.7804 -1.8631 30.228
rtibia 30.2891
rfoot -8.12251 3.59556
rtoes -10.9123
lfemur -1.97403 9.95477 -10.6043
ltibia 57.1018
lfoot 6.23491 10.5717
ltoes -23.8818
17
root 8.63283 16.1993 -28.1802 3.60572 7.11601 -5.03762
lowerback -4.79903 -3.99001 1.20278
upperback -1.4081 -5.46122 4.97726
thorax 1.60901 -2.73373 4.11573
lowerneck -23.9753 -3.04214 -12.3961
upperneck 23.9379 -3.3086 12.6622
head 12.3263 -0.956265 6.41864
rclavicle 1.81391e-015 3.02153e-014
rhumerus -40.511 -6.75511 -72.5331
rradius 17.4242
rwrist 0.374723
rhand -30.1633 -26.641
rfingers 7.12502
rthumb -3.47513 -56.5924
lclavicle 1.81391e-015 3.02153e-014
lhumerus -20.3856 -19.6888 93.1485
lradius 42.0902
lwrist 10.9427
lhand -18.5739 -28.5614
lfingers 7.12502
lthumb 7.71643 1.27782
rfemur -23.3929 -2.89261 30.3666
rtibia 29.3055
rfoot -8.21955 4.30142
rtoes -11.2061
lfemur -3.98475 9.44939 -11.049
ltibia 59.5234
lfoot 4.43033 11.6894
ltoes -23.6732
18
root 8.62461 16.252 -27.99 3.52345 7.11582 -4.86363
lowerback -4.32259 -3.77377 0.708379
upperback -1.60911 -5.12693 5.17213
thorax 1.17526 -2.56564 4.65862
lowerneck -23.6071 -3.2807 -13.0177
upperneck 23.7978 -3.50973 12.8778
head 12.2483 -1.08557 6.56727
rclavicle -1.36913e-014 7.95139e-015
rhumerus -40.3391 -5.59731 -72.956
rradius 17.8123
rwrist -0.926743
rhand -26.9537 -25.1171
rfingers 7.12502
rthumb -0.375322 -55.0965
lclavicle -1.36913e-014 7.95139e-015
lhumerus -21.4539 -19.4996 94.4375
lradius 40.5046
lwrist 10.463
lhand -18.3189 -28.1998
lfingers 7.12502
lthumb 7.96251 1.63026
rfemur -22.08 -3.31347 30.2533
rtibia 28.4538
rfoot -8.507 4.68551
rtoes -10.9273
lfemur -5.91439 9.09962 -11.7032
ltibia 61.5261
lfoot 3.01868 12.6794
ltoes -22.2413
19
root 8.61667 16.2994 -27.8002 3.61759 6.98203 -4.61532
lowerback -4.34597 -3.6011 0.304183
upperback -1.58991 -4.88107 5.09135
thorax 1.21557 -2.44345 4.814
lowerneck -23.3581 -3.40195 -13.0058
upperneck 23.3954 -3.72036 12.9888
head 12.0798 -1.16627 6.54669
rclavicle -9.53732e-014 2.78299e-014
rhumerus -39.753 -4.32914 -74.1492
rradius 17.9015
rwrist -2.54611
rhand -26.8898 -22.3554
rfingers 7.12502
rthumb -0.313613 -52.3349
lclavicle -9.53732e-014 2.78299e-014
lhumerus -22.125 -19.2251 94.937
lradius 38.8192
lwrist 9.81998
lhand -17.2366 -28.275
lfingers 7.12502
lthumb 9.00705 1.51274
rfemur -21.0316 -3.39455 30.0293
rtibia 27.7294
rfoot -8.76117 4.95995
rtoes -10.3535
lfemur -7.90485 9.01727 -12.4236
ltibia 63.2315
lfoot 2.10203 13.2706
ltoes -19.5707
20
root 8.61321 16.3288 -27.6133 3.68108 6.88883 -4.24957
lowerback -4.37144 -3.3859 -0.0760918
upperback -1.51302 -4.57807 4.82716
thorax 1.29172 -2.29297 4.76684
lowerneck -23.2782 -3.60337 -12.711
upperneck 23.0949 -4.08524 12.9163
head 11.9994 -1.31078 6.38532
rclavicle -3.7533e-014 -2.06736e-014
rhumerus -39.1097 -3.53557 -75.3616
rradius 17.844
rwrist -3.92387
rhand -28.5537 -21.5034
rfingers 7.12502
rthumb -1.92067 -51.4745
lclavicle -3.7533e-014 -2.06736e-014
lhumerus -22.692 -19.2504 95.2403
lradius 37.0624
lwrist 9.146
lhand -16.318 -27.9757
lfingers 7.12502
lthumb 9.89341 1.77186
rfemur -20.0353 -3.62134 29.6845
rtibia 27.0938
rfoot -9.13447 5.30115
rtoes -8.65583
lfemur -9.81475 8.872 -13.2862
ltibia 64.6925
lfoot 1.68156 13.9125
ltoes -14.884
21
root 8.60998 16.3514 -27.4259 3.78402 6.6246 -4.06818
lowerback -4.37276 -2.99491 -0.231036
upperback -1.55463 -4.04398 4.62196
thorax 1.19977 -2.02334 4.67539
lowerneck -23.1754 -3.81168 -12.6448
upperneck 23.1157 -4.48281 13.1184
head 12.0561 -1.46077 6.38781
rclavicle 2.5401e-014 -2.8625e-014
rhumerus -38.6258 -3.94109 -75.5322
rradius 18.469
rwrist -2.2337
rhand -25.904 -25.5659
rfingers 7.12502
rthumb 0.638485 -55.5447
lclavicle 2.5401e-014 -2.8625e-014
lhumerus -23.4227 -19.4914 95.7685
lradius 35.2814
lwrist 8.45347
lhand -15.3687 -27.1541
lfingers 7.12502
lthumb 10.8092 2.54777
rfemur -19.0913 -3.60908 29.554
rtibia 26.5103
rfoot -9.6827 5.59823
rtoes -7.24051
lfemur -11.7189 8.88081 -13.9118
ltibia 65.9127
lfoot 1.6211 14.7445
ltoes -7.4176
22
root 8.60727 16.3829 -27.2345 4.02432 6.22288 -4.00197
lowerback -4.52541 -2.70257 -0.355287
upperback -1.67483 -3.64668 4.61491
thorax 1.13479 -1.82198 4.75915
lowerneck -22.978 -3.84547 -12.9041
upperneck 23.1347 -4.56634 13.4846
head 12.0562 -1.48234 6.56664
rclavicle 2.38417e-014 4.69132e-014
rhumerus -37.9736 -3.27598 -76.0014
rradius 18.9763
rwrist -1.4774
rhand -25.0996 -27.4523
rfingers 7.12502
rthumb 1.41533 -57.4273
lclavicle 2.38417e-014 4.69132e-014
lhumerus -24.1338 -18.9041 96.2444
lradius 33.3773
lwrist 7.55309
lhand -14.2937 -26.3807
lfingers 7.12502
lthumb 11.8459 3.26428
rfemur -18.2219 -3.35019 29.5587
rtibia 25.8821
rfoot -10.08 5.80016
rtoes -7.79406
lfemur -13.6824 9.1817 -14.3732
ltibia 66.909
lfoot 0.436589 14.9735
ltoes -5.02412
23
root 8.60437 16.4177 -27.0455 3.97943 6.07712 -3.88363
lowerback -4.45769 -2.60248 -0.538758
upperback -1.6477 -3.50546 4.6335
thorax 1.12474 -1.7516 4.8937
lowerneck -22.8951 -3.90117 -13.1641
upperneck 23.1157 -4.61943 13.6963
head 12.0548 -1.50626 6.6877
rclavicle 5.01931e-015 -1.03368e-014
rhumerus -37.0175 -2.36142 -76.5649
rradius 18.9913
rwrist -1.24531
rhand -25.4256 -27.1462
rfingers 7.12502
rthumb 1.10055 -57.1231
lclavicle 5.01931e-015 -1.03368e-014
lhumerus -24.7038 -17.6735 96.4731
lradius 31.4697
lwrist 6.45758
lhand -13.1428 -25.9226
lfingers 7.12502
lthumb 12.9555 3.65521
rfemur -17.0082 -3.15249 29.49
rtibia 25.1707
rfoot -10.5711 5.65738
rtoes -8.34297
lfemur -15.3137 9.17194 -14.8995
ltibia 67.7081
lfoot 5.42857 24.7002
ltoes -8.85881
24
root 8.59651 16.4424 -26.863 3.86219 5.90944 -3.95095
lowerback -4.31923 -2.44687 -0.475811
upperback -1.59736 -3.29882 4.60452
thorax 1.0754 -1.64794 4.84525
lowerneck -22.7949 -3.96691 -13.0845
upperneck 23.0965 -4.72271 13.586
head 12.0395 -1.56172 6.60862
rclavicle 4.90315e-014 -1.90833e-014
rhumerus -36.6842 -0.501084 -77.7299
rradius 19.8015
rwrist -2.42293
rhand -25.7996 -27.7977
rfingers 7.12502
rthumb 0.739344 -57.7762
lclavicle 4.90315e-014 -1.90833e-014
lhumerus -25.3987 -16.4197 96.4935
lradius 29.8473
lwrist 5.16361
lhand -11.8382 -24.8985
lfingers 7.12502
lthumb 14.2129 4.59524
rfemur -15.777 -2.71337 29.6421
rtibia 24.4501
rfoot -10.8633 5.2411
rtoes -8.47505
lfemur -16.9129 9.04799 -15.199
ltibia 68.3312
lfoot -2.43905 15.1456
ltoes -5.81326
25
root 8.58771 16.4557 -26.6831 4.0215 5.35314 -4.20417
lowerback -4.45078 -2.11129 -0.226273
upperback -1.59995 -2.86287 4.58488
thorax 1.09438 -1.42916 4.70437
lowerneck -22.8884 -4.05632 -12.9167
upperneck 23.233 -4.85716 13.3886
head 12.1224 -1.62907 6.48469
rclavicle -1.33496e-014 1.43125e-014
rhumerus -36.7747 1.69624 -79.028
rradius 21.1703
rwrist -4.10024
rhand -26.2132 -29.104
rfingers 7.12502
rthumb 0.339832 -59.0835
lclavicle -1.33496e-014 1.43125e-014
lhumerus -25.9879 -15.3176 96.3587
lradius 28.2037
lwrist 3.91109
lhand -10.7073 -23.4294
lfingers 7.12502
lthumb 15.3024 5.98444
rfemur -14.897 -1.9403 30.0214
rtibia 23.7775
rfoot -10.8634 4.88666
rtoes -9.45078
lfemur -18.7964 9.45724 -15.2679
ltibia 68.8054
lfoot -3.5436 14.8357
ltoes -4.73007
26
root 8.5851 16.4662 -26.4948 4.2296 4.80409 -4.36422
lowerback -4.66955 -1.72047 -0.0100063
upperback -1.60441 -2.35339 4.48448
thorax 1.15613 -1.17386 4.50062
lowerneck -23.205 -4.23016 -12.8228
upperneck 23.5708 -5.13167 13.3767
head 12.36 -1.73732 6.43898
rclavicle 1.2921e-015 3.97569e-015
rhumerus -36.3682 2.64736 -79.7226
rradius 21.7239
rwrist -4.50179
rhand -25.9471 -29.2731
rfingers 7.12502
rthumb 0.596803 -59.252
lclavicle 1.2921e-015 3.97569e-015
lhumerus -26.4734 -14.4001 96.1315
lradius 26.3519
lwrist 2.59643
lhand -9.79019 -22.5006
lfingers 7.12502
lthumb 16.1857 6.84369
rfemur -14.0747 -1.4463 30.2771
rtibia 23.2075
rfoot -11.1159 4.79116
rtoes -10.3277
lfemur -20.6139 9.9752 -15.487
ltibia 69.0603
lfoot -4.63162 14.185
ltoes -4.02276
27
root 8.59201 16.4705 -26.302 4.25894 4.49822 -4.33797
lowerback -4.65863 -1.44538 0.130367
upperback -1.64938 -1.98772 4.33439
thorax 1.06474 -0.989073 4.28719
lowerneck -23.1654 -4.38033 -12.8868
upperneck 23.673 -5.36525 13.4642
head 12.4367 -1.83844 6.45064
rclavicle -7.96381e-015 3.26007e-014
rhumerus -36.0099 3.8333 -80.4931
rradius 22.4901
rwrist -5.29103
rhand -26.7167 -29.541
rfingers 7.12502
rthumb -0.1465 -59.5207
lclavicle -7.96381e-015 3.26007e-014
lhumerus -27.1762 -12.9934 95.7893
lradius 24.637
lwrist 0.800607
lhand -8.69494 -21.7943
lfingers 7.12502
lthumb 17.2401 7.46097
rfemur -13.1416 -1.49732 30.2763
rtibia 22.8282
rfoot -11.4867 5.05795
rtoes -9.70268
lfemur -22.1321 10.0831 -15.9753
ltibia 69.0472
lfoot -0.282977 24.0837
ltoes -7.56818
28
root 8.59965 16.4674 -26.1191 4.22819 4.11261 -4.16023
lowerback -4.59557 -1.23675 0.129702
upperback -1.61072 -1.70663 4.16119
thorax 1.04323 -0.848448 4.12411
lowerneck -22.8693 -4.46223 -12.9289
upperneck 23.3948 -5.47886 13.4667
head 12.2891 -1.90019 6.41983
rclavicle -3.37934e-015 2.46493e-014
rhumerus -35.9027 6.0319 -81.7655
rradius 23.9246
rwrist -7.51707
rhand -28.6278 -30.6707
rfingers 7.12502
rthumb -1.99221 -60.6411
lclavicle -3.37934e-015 2.46493e-014
lhumerus -27.8514 -10.8918 95.0876
lradius 23.1216
lwrist -1.41937
lhand -7.55076 -21.03
lfingers 7.12502
lthumb 18.3411 8.12532
rfemur -12.2512 -1.48185 30.098
rtibia 22.6144
rfoot -11.7976 5.44043
rtoes -8.69442
lfemur -23.5548 10.1744 -16.6382
ltibia 68.8054
lfoot 4.02952 30.4347
ltoes -1.6948
29
root 8.60173 16.4664 -25.9414 4.3554 3.5513 -3.98045
lowerback -4.60964 -0.958962 0.0955709
upperback -1.61153 -1.33186 3.95008
thorax 1.01931 -0.660574 3.94462
lowerneck -22.7884 -4.4678 -12.7736
upperneck 23.2535 -5.52449 13.411
head 12.2186 -1.91459 6.35289
rclavicle 3.31722e-015 -7.95139e-015
rhumerus -35.5531 7.72581 -82.7571
rradius 24.714
rwrist -8.58938
rhand -28.8474 -29.6927
rfingers 7.12502
rthumb -2.20435 -59.6611
lclavicle 3.31722e-015 -7.95139e-015
lhumerus -28.513 -8.80496 94.1608
lradius 21.5548
lwrist -3.63269
lhand -7.61532 -21.3454
lfingers 7.12502
lthumb 18.2789 7.81579
rfemur -11.6219 -1.0662 29.9317
rtibia 22.5277
rfoot -12.2049 5.60026
rtoes -8.15413
lfemur -25.1461 10.5118 -17.306
ltibia 68.3805
lfoot 4.49064 32.8416
ltoes -1.51687
30
root 8.60464 16.4628 -25.7567 4.51389 2.95863 -3.9199
lowerback -4.58956 -0.604787 0.132343
upperback -1.70118 -0.855334 3.80717
thorax 0.880589 -0.420093 3.80233
lowerneck -23.2276 -4.60106 -12.6309
upperneck 23.7062 -5.70555 13.2262
head 12.5019 -1.99358 6.24944
rclavicle 9.34909e-015 1.59028e-014
rhumerus -35.1572 8.97276 -83.3715
rradius 25.3596
rwrist -8.89761
rhand -28.2088 -29.0567
rfingers 7.12502
rthumb -1.58758 -59.0306
lclavicle 9.34909e-015 1.59028e-014
lhumerus -29.3518 -7.15858 93.3902
lradius 20.0515
lwrist -5.4798
lhand -8.61166 -22.5945
lfingers 7.12502
lthumb 17.3202 6.65377
rfemur -11.0611 -0.854311 29.8945
rtibia 22.4737
rfoot -12.6882 5.84587
rtoes -8.47216
lfemur -26.709 10.8712 -17.8323
ltibia 67.7895
lfoot 1.32441 32.2432
ltoes -8.67731
